<svg version="1.1" xmlns="http://www.w3.org/2000/svg" viewBox="4.81 6.34 130.57 120.81"><!-- svg-source:excalidraw --><metadata/><defs><style class="style-fonts">       </style></defs><g stroke-linecap="round" transform="translate(37.269051747900676 10) rotate(0 38.4233070933243 40.27916182737488)"><path d="M42.8 -2.62 L76.67 44.32 L39.97 77.61 L0.58 42.06" stroke="none" stroke-width="0" fill="#004085" fill-rule="evenodd"/><path d="M38.58 1.48 C52.36 13.22, 58.09 20.38, 79.23 44.2 M39.21 -1.66 C52.1 14.75, 61.68 23.38, 78.32 41.09 M75.28 41.67 C62.58 52.01, 50.6 66.33, 41.71 76.67 M78.6 40.02 C68.3 51.35, 59.4 56.31, 39.33 81.03 M39.38 82.76 C25.06 60.96, 9.57 47.43, -1.28 43.76 M38.98 79.66 C23.12 67.16, 9.4 51.66, 1.9 39.67 M-3.57 37.1 C8.97 30.48, 16.94 24.49, 37.94 2.46 M-0.14 41.68 C8.24 32.17, 18.48 23.14, 37.34 1.65" stroke="#004085" stroke-width="4" fill="none"/></g><g stroke-linecap="round" transform="translate(87.29078061327596 43.66606983783595) rotate(0 22.09514475889398 30.521644554097747)"><path d="M24.13 1.18 L46.28 33.03 L19.18 57.6 L2.89 31.24" stroke="none" stroke-width="0" fill="#ffec99" fill-rule="evenodd"/><path d="M23.38 2.2 C31.14 8.48, 38.88 22.17, 42.91 33.76 M22.98 -0.9 C30.88 12.98, 40.11 24.39, 46.09 29.67 M40.62 27.1 C38.12 37.37, 31.05 49.13, 21.94 63.51 M44.05 31.68 C40.04 38.67, 37.16 45.12, 21.34 62.69 M26.32 62.01 C11.36 49.74, 6.29 34.06, 2.75 31.01 M21.67 62.88 C17.9 54.26, 14.34 49.53, -1.39 29.94 M-0.34 32.87 C7.66 26.38, 12.67 14.83, 19.51 -0.51 M1.01 31.69 C9.6 20.5, 15.91 7.31, 24.36 0.68" stroke="#ffec99" stroke-width="4" fill="none"/></g><g stroke-linecap="round" transform="translate(10 44.57702534330929) rotate(0 48.91615287809884 33.829888710614455)"><path d="M52.37 -2.14 L101.16 36.27 L46.43 71.28 L2.28 33.46" stroke="none" stroke-width="0" fill="#ff66c4" fill-rule="evenodd"/><path d="M47.61 -3.06 C61.17 14.95, 77.02 19.58, 95 37.9 M49.23 -1.49 C61.74 7.26, 73.28 17.53, 95.99 33.94 M95.78 35.08 C88.44 40.32, 75.7 47.49, 47.56 64.14 M96.35 34.43 C84.57 44.11, 71.74 51.38, 49.4 67.67 M45.58 69.18 C34.09 52.93, 9.84 46.85, -0.23 34.36 M49.94 68.27 C34.14 58.72, 19.16 48.38, 0.92 34.35 M-3.19 32.05 C17.33 24.81, 41.12 11, 46.25 -1.96 M-0.87 35.41 C15.59 24.45, 27.12 15.57, 50.25 0.5" stroke="#ff66c4" stroke-width="4" fill="none"/></g><g stroke-linecap="round" transform="translate(22.53614690550853 87.87161240901105) rotate(0 19.222802115224795 18.813826792365262)"><path d="M24.66 0.16 C28.59 0.98, 32.66 4.66, 34.95 8.05 C37.25 11.44, 38.71 16.29, 38.43 20.49 C38.15 24.69, 36.31 30.31, 33.26 33.24 C30.21 36.18, 24.25 38.09, 20.12 38.08 C15.99 38.07, 11.73 35.66, 8.48 33.16 C5.23 30.66, 1.62 26.95, 0.59 23.09 C-0.45 19.22, 0.37 13.49, 2.27 9.97 C4.16 6.46, 8.08 3.53, 11.95 2.02 C15.82 0.5, 23.24 0.8, 25.5 0.89 C27.76 0.98, 25.43 2.14, 25.5 2.54 M11.27 2.26 C14.55 0.48, 20.36 0.13, 24.39 1.03 C28.41 1.92, 32.95 4.44, 35.44 7.62 C37.93 10.81, 39.92 15.75, 39.35 20.13 C38.77 24.51, 35.01 30.98, 31.98 33.9 C28.96 36.82, 25.31 37.48, 21.2 37.63 C17.09 37.78, 10.87 37.22, 7.32 34.81 C3.77 32.4, 0.65 27.35, -0.12 23.17 C-0.89 18.99, 0.9 13.28, 2.71 9.72 C4.52 6.16, 9.16 2.91, 10.76 1.79 C12.37 0.68, 11.85 2.71, 12.34 3.04" stroke="none" stroke-width="0" fill="#fab005"/><path d="M26.56 1.21 C30.5 2.61, 35.09 6.5, 37.02 10.04 C38.95 13.58, 39.19 18.47, 38.15 22.46 C37.11 26.46, 34.22 31.53, 30.78 33.99 C27.34 36.45, 21.52 37.54, 17.53 37.22 C13.54 36.9, 9.63 34.68, 6.84 32.07 C4.05 29.45, 1.24 25.46, 0.77 21.51 C0.3 17.57, 1.95 11.68, 4 8.39 C6.05 5.1, 8.89 2.6, 13.09 1.75 C17.29 0.9, 26.12 2.81, 29.22 3.29 C32.31 3.77, 31.74 4.58, 31.67 4.64 M23.53 0.48 C27.48 0.87, 32.56 3.38, 34.96 6.91 C37.35 10.44, 38.15 17.74, 37.91 21.68 C37.66 25.61, 36.08 28.13, 33.49 30.53 C30.91 32.94, 26.65 35.22, 22.41 36.09 C18.17 36.96, 11.83 37.79, 8.07 35.75 C4.31 33.7, 0.74 27.91, -0.15 23.81 C-1.04 19.72, 0.63 14.66, 2.71 11.18 C4.79 7.7, 9 4.64, 12.34 2.91 C15.68 1.19, 20.94 1.08, 22.76 0.84 C24.59 0.61, 22.99 1.14, 23.29 1.51" stroke="#fab005" stroke-width="4" fill="none"/></g><g stroke-linecap="round" transform="translate(37.69182021048232 79.73977307550558) rotate(0 30.327490019140896 15.669629153332266)"><path d="M-0.67 1.35 L58.53 -2.71 L58.93 32.16 L1.32 32.73" stroke="none" stroke-width="0" fill="#3bc9db"/><path d="M0.46 3.9 C13.59 -0.62, 33.93 0.57, 62.46 -1.52 M-1.17 0.95 C15.82 -0.25, 35.01 1.12, 58.95 1.68 M58.05 -2.63 C62.89 8.83, 57.17 23.54, 59.97 28.19 M60.08 0.88 C60.78 11.1, 61.8 25.89, 60.53 33.12 M61.42 30.31 C40.04 34.55, 14.2 31.95, -2.39 32.52 M61.58 32.72 C41.22 30.38, 21.08 32.3, -1.01 30.43 M3.74 31.75 C-1.19 18.28, 3.55 9.28, -1.6 -3.18 M-1.97 30.85 C-1.42 24.64, -1.2 17.27, -0.41 0.79" stroke="#3bc9db" stroke-width="4" fill="none"/></g><g stroke-linecap="round" transform="translate(83.1238645395456 74.86399334103362) rotate(0 21.840797780082767 21.720252641073557)"><path d="M13.35 1.12 C17.12 -0.97, 23.44 -0.68, 27.75 0.73 C32.07 2.14, 36.47 5.76, 39.25 9.59 C42.02 13.42, 44.95 19.11, 44.4 23.7 C43.86 28.29, 39.61 33.96, 35.97 37.15 C32.34 40.33, 27.06 42.36, 22.61 42.83 C18.16 43.31, 12.85 42.62, 9.28 40 C5.71 37.38, 2.31 31.86, 1.19 27.12 C0.06 22.38, 0.26 15.75, 2.55 11.56 C4.83 7.37, 12.82 3.82, 14.88 1.99 C16.94 0.17, 14.95 0.43, 14.92 0.6 M27.73 1.92 C32.11 3.08, 36.64 6.2, 39.27 9.64 C41.9 13.08, 43.74 18.06, 43.53 22.55 C43.31 27.04, 41.24 33.36, 37.98 36.58 C34.73 39.8, 28.78 41.45, 24.01 41.89 C19.25 42.34, 13.1 41.86, 9.4 39.23 C5.7 36.61, 2.8 30.6, 1.8 26.15 C0.81 21.71, 1.81 16.43, 3.44 12.56 C5.08 8.69, 7.89 4.96, 11.63 2.93 C15.37 0.91, 23.12 0.51, 25.9 0.4 C28.68 0.3, 28.17 1.92, 28.33 2.31" stroke="none" stroke-width="0" fill="#407060"/><path d="M27.1 1.52 C31.61 2.53, 37.67 6.86, 40.49 10.54 C43.31 14.21, 44.46 19.09, 44.03 23.59 C43.61 28.08, 41.28 34.16, 37.95 37.52 C34.61 40.88, 28.83 43.54, 24.04 43.75 C19.24 43.96, 13.15 41.72, 9.2 38.78 C5.25 35.84, 1.51 30.42, 0.32 26.13 C-0.87 21.83, -0.03 16.99, 2.06 13 C4.15 9.02, 7.91 4.08, 12.88 2.24 C17.85 0.39, 28.39 1.63, 31.87 1.94 C35.35 2.24, 33.88 3.58, 33.76 4.07 M28.31 0.51 C32.63 1.73, 39.21 7.46, 41.65 11.26 C44.09 15.05, 44.03 18.64, 42.92 23.28 C41.81 27.93, 38.2 35.54, 34.99 39.13 C31.79 42.72, 28.17 45, 23.68 44.82 C19.2 44.64, 11.87 41.14, 8.07 38.06 C4.27 34.98, 1.84 30.64, 0.87 26.34 C-0.11 22.04, 0.3 16.21, 2.2 12.27 C4.11 8.32, 7.69 4.59, 12.28 2.67 C16.87 0.75, 26.86 1.03, 29.73 0.74 C32.61 0.46, 29.63 0.51, 29.54 0.97" stroke="#407060" stroke-width="4" fill="none"/></g></svg>